<svg xmlns="http://www.w3.org/2000/svg" xml:space="preserve" viewBox="0 0 884.868 500.464"><path d="M693.46 421.756c-69.63 51.323-170.56 78.708-257.452 78.708-121.843 0-231.533-45.065-314.517-120.018-6.517-5.894-.677-13.925 7.147-9.334 89.556 52.105 200.288 83.45 314.673 83.45 77.144 0 162.003-15.957 240.03-49.08 11.79-5.006 21.646 7.72 10.12 16.274"/><path d="M722.41 388.637c-8.87-11.372-58.84-5.374-81.261-2.715-6.832.836-7.88-5.11-1.72-9.39 39.79-28.007 105.09-19.92 112.71-10.534 7.616 9.44-1.985 74.9-39.383 106.145-5.735 4.798-11.214 2.24-8.656-4.123 8.396-20.968 27.23-67.962 18.31-79.383"/><path fill-opacity=".996" d="M470.646 14.143V4.377c0-1.478 1.121-2.469 2.47-2.469h43.719c1.403 0 2.524 1.01 2.524 2.469v8.363c-.019 1.403-1.197 3.236-3.292 6.136L493.413 51.22c8.418-.206 17.303 1.047 24.936 5.35 1.72.973 2.19 2.395 2.32 3.798V70.79c0 1.421-1.572 3.086-3.219 2.226-13.45-7.053-31.315-7.82-46.187.075-1.516.822-3.106-.824-3.106-2.245v-9.898c0-1.588.019-4.301 1.61-6.716l26.245-37.638h-22.84c-1.405 0-2.526-.992-2.526-2.45M311.163 75.074h-13.301c-1.272-.095-2.283-1.048-2.376-2.264V4.545c0-1.365 1.14-2.451 2.563-2.451h12.403c1.29.057 2.32 1.048 2.414 2.283V13.3h.242C316.345 4.677 322.425.655 330.62.655c8.325 0 13.526 4.022 17.266 12.646C351.103 4.677 358.418.655 366.257.655c5.575 0 11.673 2.3 15.395 7.463 4.21 5.744 3.35 14.087 3.35 21.402l-.019 43.084c0 1.365-1.14 2.47-2.563 2.47h-13.283c-1.328-.095-2.394-1.161-2.394-2.47v-36.18c0-2.882.261-10.065-.374-12.796-.991-4.584-3.966-5.875-7.82-5.875-3.218 0-6.584 2.15-7.95 5.593-1.366 3.443-1.235 9.204-1.235 13.077v36.181c0 1.365-1.142 2.47-2.564 2.47h-13.281c-1.348-.095-2.395-1.161-2.395-2.47l-.02-36.18c0-7.615 1.254-18.82-8.193-18.82-9.56 0-9.186 10.925-9.186 18.82v36.18c0 1.365-1.14 2.47-2.562 2.47M557.111 14.592c-9.801 0-10.421 13.357-10.421 21.682 0 8.343-.129 26.153 10.31 26.153 10.307 0 10.794-14.368 10.794-23.123 0-5.762-.243-12.646-1.983-18.109-1.496-4.752-4.47-6.603-8.7-6.603zm-.11-13.937c19.736 0 30.418 16.948 30.418 38.5 0 20.82-11.807 37.341-30.418 37.341-19.382 0-29.934-16.95-29.934-38.071 0-21.252 10.682-37.77 29.934-37.77M613.01 75.074h-13.244c-1.33-.095-2.396-1.161-2.396-2.47l-.02-68.284c.113-1.253 1.217-2.226 2.564-2.226h12.329c1.16.057 2.114.842 2.375 1.91v10.44h.244c3.723-9.337 8.942-13.79 18.128-13.79 5.968 0 11.786 2.152 15.527 8.044 3.478 5.463 3.478 14.648 3.478 21.252v42.973c-.15 1.196-1.251 2.151-2.56 2.151h-13.34c-1.215-.095-2.226-.992-2.356-2.151v-37.08c0-7.464.86-18.39-8.327-18.39-3.236 0-6.21 2.17-7.687 5.463-1.872 4.172-2.114 8.325-2.114 12.927v36.761c-.02 1.365-1.178 2.47-2.6 2.47M428.57 0c-12.645 0-26.787 4.714-29.742 20.354-.318 1.664.898 2.544 1.983 2.788l12.89 1.382c1.214-.056 2.092-1.233 2.317-2.43 1.104-5.388 5.614-7.99 10.683-7.99 2.751 0 5.855 1.012 7.465 3.463 1.87 2.73 1.628 6.472 1.628 9.634v1.72c-7.707.88-17.792 1.442-25.012 4.623-8.344 3.591-14.181 10.942-14.181 21.737 0 13.824 8.7 20.728 19.905 20.728 9.447 0 14.628-2.227 21.925-9.673 2.413 3.499 3.218 5.2 7.632 8.867.992.524 2.264.469 3.143-.318l.02.038c2.655-2.356 7.482-6.565 10.193-8.829 1.086-.898.9-2.34.058-3.536-2.433-3.368-5.014-6.1-5.014-12.33V29.503c0-8.775.617-16.838-5.855-22.88C443.5 1.721 435.045 0 428.571 0zm7.224 39.585v2.882c0 5.181.13 9.503-2.49 14.104-2.114 3.742-5.481 6.043-9.203 6.043-5.108 0-8.1-3.891-8.1-9.634 0-11.336 10.157-13.395 19.793-13.395zM254.198 0c-12.647 0-26.77 4.714-29.745 20.354-.3 1.664.898 2.544 1.983 2.788l12.908 1.382c1.198-.056 2.076-1.233 2.301-2.43 1.104-5.388 5.63-7.99 10.7-7.99 2.732 0 5.837 1.012 7.466 3.463 1.852 2.73 1.609 6.472 1.609 9.634v1.72c-7.709.88-17.792 1.442-25.012 4.623-8.326 3.591-14.182 10.942-14.182 21.737 0 13.824 8.718 20.728 19.905 20.728 9.467 0 14.63-2.227 21.926-9.673 2.433 3.499 3.218 5.2 7.633 8.867.991.524 2.264.469 3.143-.318l.038.038c2.656-2.356 7.481-6.565 10.195-8.829 1.084-.898.898-2.34.037-3.536-2.432-3.368-5.014-6.1-5.014-12.33V29.503c0-8.775.618-16.838-5.856-22.88C269.127 1.721 260.671 0 254.197 0zm7.222 39.585v2.882c0 5.181.131 9.503-2.489 14.104-2.113 3.742-5.463 6.043-9.205 6.043-5.107 0-8.08-3.891-8.08-9.634 0-11.336 10.158-13.395 19.774-13.395z"/><g stroke-width="3.113" aria-label="miniTV" font-family="Amazon Ember" font-size="199.226" font-weight="700" letter-spacing="0" style="line-height:1.25;-inkscape-font-specification:'Amazon Ember Bold'" word-spacing="0"><path d="M168.147 318.242v-91.91q0-18.063-16.204-18.063-14.344 0-28.954 6.907v103.066H84.206v-91.91q0-18.063-16.203-18.063-14.876 0-29.22 7.173v102.8H0v-135.74h31.876l3.453 13.017q14.08-9.297 25.236-13.016 11.422-3.985 23.376-3.985 23.907 0 33.735 17.001 13.548-9.032 25.501-13.016 11.954-3.985 24.704-3.985 18.595 0 28.689 10.36 10.36 10.36 10.36 28.954v100.41zM244.907 318.242v-135.74h38.783v135.74ZM264.3 161.518q-10.094 0-16.204-5.579-6.11-5.578-6.11-15.14 0-9.564 6.11-15.142 6.11-5.578 16.204-5.578 10.094 0 16.203 5.578 6.11 5.578 6.11 15.141 0 9.563-6.11 15.141-6.11 5.579-16.203 5.579zM409.315 318.242v-88.987q0-10.891-4.782-15.938-4.781-5.048-14.61-5.048-14.61 0-28.954 9.032v100.941h-38.783v-135.74h31.877l3.718 14.61q23.908-18.594 51.002-18.594 18.86 0 28.955 10.36 10.36 10.094 10.36 28.954v100.41zM485.64 318.242v-135.74h38.782v135.74Zm19.39-156.724q-10.094 0-16.203-5.579-6.11-5.578-6.11-15.14 0-9.564 6.11-15.142 6.11-5.578 16.203-5.578 10.095 0 16.204 5.578 6.11 5.578 6.11 15.141 0 9.563-6.11 15.141-6.11 5.579-16.204 5.579z"/><path fill="#d01e6c" d="M603.56 318.242V166.033h-56.049v-31.876h151.944v31.876h-56.05v152.21ZM777.286 318.242l-65.347-184.085h44.096l43.033 145.037 42.767-145.037h43.033l-65.346 184.085Z"/></g></svg>